<?xml version="1.0" encoding="utf-8"?>
<!-- Generator: Adobe Illustrator 19.0.0, SVG Export Plug-In . SVG Version: 6.00 Build 0)  -->
<svg version="1.1" id="Layer_1" xmlns="http://www.w3.org/2000/svg" xmlns:xlink="http://www.w3.org/1999/xlink" x="0px" y="0px"
	 viewBox="0 0 90 90" style="enable-background:new 0 0 90 90;" xml:space="preserve">
<style type="text/css">
	.st0{fill:#666666;}
</style>
<g id="XMLID_1_">
	<path id="XMLID_12_" class="st0" d="M61.9,2H28.1c-5,0-9.1,3.8-9.1,8.8v64.9c0,5,4.1,8.3,9.1,8.3H30v4h4v-4h22v4h4v-4h1.9
		c5,0,9.1-3.3,9.1-8.3V10.8C71,5.8,66.9,2,61.9,2z M28.1,6h33.9c3,0,5.1,1.8,5.1,4.8V31H23V10.8C23,7.8,25.1,6,28.1,6z M61.9,81
		H28.1c-3,0-5.1-2.4-5.1-5.3V35h44v40.7C67,78.6,64.9,81,61.9,81z"/>
	<rect id="XMLID_14_" x="30" y="12" class="st0" width="4" height="11"/>
	<rect id="XMLID_15_" x="30" y="40" class="st0" width="4" height="21"/>
</g>
</svg>
