<?xml version="1.0" encoding="utf-8"?>
<!-- Generator: Adobe Illustrator 19.0.0, SVG Export Plug-In . SVG Version: 6.00 Build 0)  -->
<svg version="1.1" id="Layer_1" xmlns="http://www.w3.org/2000/svg" xmlns:xlink="http://www.w3.org/1999/xlink" x="0px" y="0px"
	 viewBox="-23 1.5 90 90" style="enable-background:new -23 1.5 90 90;" xml:space="preserve">
<style type="text/css">
	.st0{fill:#666766;}
</style>
<g>
	<g>
		<path class="st0" d="M0.8,80.7h-12.7V18.3l6.3-6.1l6.3,6.1V80.7z M-8.7,77.4h6.1V19.7l-3-2.9l-3,2.9C-8.7,19.7-8.7,77.4-8.7,77.4z
			"/>
	</g>
	<g>
		<path class="st0" d="M19.2,80.7H6.5V18.3l6.3-6.1l6.3,6.1V80.7z M9.8,77.4h6.1V19.7l-3-2.9l-3,2.9C9.8,19.7,9.8,77.4,9.8,77.4z"/>
	</g>
	<g>
		<path class="st0" d="M37.7,80.7H25V18.3l6.3-6.1l6.3,6.1V80.7z M28.3,77.4h6.1V19.7l-3-2.9l-3,2.9V77.4z"/>
	</g>
	<g>
		<path class="st0" d="M56.2,80.7H43.5V18.3l6.3-6.1l6.3,6.1V80.7z M46.8,77.4h6.1V19.7l-3-2.9l-3,2.9
			C46.8,19.7,46.8,77.4,46.8,77.4z"/>
	</g>
	<g>
		<rect id="XMLID_46_" x="-18" y="31.4" class="st0" width="6.1" height="3.2"/>
	</g>
	<g>
		<rect id="XMLID_45_" x="-18" y="37.5" class="st0" width="6.1" height="3.2"/>
	</g>
	<g>
		<rect id="XMLID_44_" x="-18" y="56" class="st0" width="6.1" height="3.2"/>
	</g>
	<g>
		<rect id="XMLID_43_" x="-18" y="62.1" class="st0" width="6.1" height="3.2"/>
	</g>
	<g>
		<rect id="XMLID_42_" x="19.2" y="31.4" class="st0" width="6.1" height="3.2"/>
	</g>
	<g>
		<rect id="XMLID_41_" x="19.2" y="37.5" class="st0" width="6.1" height="3.2"/>
	</g>
	<g>
		<rect id="XMLID_40_" x="19.2" y="56" class="st0" width="6.1" height="3.2"/>
	</g>
	<g>
		<rect id="XMLID_39_" x="19.2" y="62.1" class="st0" width="6.1" height="3.2"/>
	</g>
	<g>
		<rect id="XMLID_38_" x="37.5" y="31.4" class="st0" width="6.1" height="3.2"/>
	</g>
	<g>
		<rect id="XMLID_37_" x="37.5" y="37.5" class="st0" width="6.1" height="3.2"/>
	</g>
	<g>
		<rect id="XMLID_36_" x="37.5" y="56" class="st0" width="6.1" height="3.2"/>
	</g>
	<g>
		<rect id="XMLID_35_" x="37.5" y="62.1" class="st0" width="6.1" height="3.2"/>
	</g>
	<g>
		<rect id="XMLID_34_" x="55.9" y="31.4" class="st0" width="6.1" height="3.2"/>
	</g>
	<g>
		<rect id="XMLID_33_" x="55.9" y="37.5" class="st0" width="6.1" height="3.2"/>
	</g>
	<g>
		<rect id="XMLID_32_" x="55.9" y="56" class="st0" width="6.1" height="3.2"/>
	</g>
	<g>
		<rect id="XMLID_31_" x="55.9" y="62.1" class="st0" width="6.1" height="3.2"/>
	</g>
	<g>
		<rect id="XMLID_30_" x="0.7" y="31.4" class="st0" width="6.1" height="3.2"/>
	</g>
	<g>
		<rect id="XMLID_3_" x="0.7" y="37.5" class="st0" width="6.1" height="3.2"/>
	</g>
	<g>
		<rect id="XMLID_2_" x="0.7" y="56" class="st0" width="6.1" height="3.2"/>
	</g>
	<g>
		<rect id="XMLID_1_" x="0.7" y="62.1" class="st0" width="6.1" height="3.2"/>
	</g>
</g>
</svg>
