<?xml version="1.0" encoding="utf-8"?>
<!-- Generator: Adobe Illustrator 19.0.0, SVG Export Plug-In . SVG Version: 6.00 Build 0)  -->
<svg version="1.1" id="Layer_1" xmlns="http://www.w3.org/2000/svg" xmlns:xlink="http://www.w3.org/1999/xlink" x="0px" y="0px"
	 viewBox="0 0 90 90" style="enable-background:new 0 0 90 90;" xml:space="preserve">
<style type="text/css">
	.st0{display:none;}
	.st1{display:inline;fill:#666666;}
	.st2{fill:#666666;}
</style>
<g id="XMLID_2_" class="st0">
	<path id="XMLID_10_" class="st1" d="M33.6,34.8c0,6.6,4.8,12,10.7,12c5.9,0,10.7-5.4,10.7-12c0-1.5-0.2-2.9-0.7-4.2H34.3
		C33.8,31.9,33.6,33.3,33.6,34.8z"/>
	<path id="XMLID_4_" class="st1" d="M61.7,52.8l-7.9-3.2v-4.2h-1.5c-1.3,1.6-3,2.8-4.9,3.4v3.6c0,1.7-1.4,3-3,3h0c-1.7,0-3-1.4-3-3
		v-3.6c-1.9-0.6-3.6-1.8-4.9-3.4h-1.5v4.2l-7.9,3.2c-3.1,1.2-5.1,4.2-5.1,7.5v8.1c0,0.6,0.5,1.1,1.1,1.1h42.4c0.6,0,1.1-0.5,1.1-1.1
		v-8.1C66.8,57,64.8,54.1,61.7,52.8z M36.7,68c-1.2,0-2.2-1-2.2-2.2c0-1.2,1-2.2,2.2-2.2c1.2,0,2.2,1,2.2,2.2
		C38.9,67,37.9,68,36.7,68z M36.7,60.8c-1.2,0-2.2-1-2.2-2.2s1-2.2,2.2-2.2c1.2,0,2.2,1,2.2,2.2S37.9,60.8,36.7,60.8z M51.9,68
		c-1.2,0-2.2-1-2.2-2.2c0-1.2,1-2.2,2.2-2.2s2.2,1,2.2,2.2C54.1,67,53.1,68,51.9,68z M51.9,60.8c-1.2,0-2.2-1-2.2-2.2s1-2.2,2.2-2.2
		s2.2,1,2.2,2.2S53.1,60.8,51.9,60.8z"/>
	<path id="XMLID_3_" class="st1" d="M44.3,29.2h10l2-7.6c0,0-1.5,0.4-2.9,0.4c-1.5,0-6.7-2.1-9.1-2.1c-2.4,0-7.6,2.1-9.1,2.1
		c-1.4,0-2.9-0.4-2.9-0.4l2,7.6H44.3z"/>
</g>
<g id="chart_x5F_up_2_" class="st0">
	<path id="chart_x5F_up_4_" class="st1" d="M72.3,67.7l0-46c0-0.6-0.4-1-1-1h-54c-0.6,0-1,0.4-1,1v46c0,0.6,0.4,1,1,1h54
		C71.9,68.7,72.3,68.3,72.3,67.7z M64.3,39.7c0,0.6-0.4,1-1,1c-0.6,0-1-0.4-1-1l0-3.6L54,44.4c-0.4,0.4-1,0.4-1.4,0l-3.3-3.3
		L38,52.4c-0.4,0.4-1,0.4-1.4,0l-3.3-3.3L26,56.4c-0.4,0.4-1,0.4-1.4,0c-0.4-0.4-0.4-1,0-1.4l8-8c0.4-0.4,1-0.4,1.4,0l3.3,3.3
		L48.6,39c0.4-0.4,1-0.4,1.4,0l3.3,3.3l7.6-7.6l-3.6,0c-0.6,0-1-0.4-1-1c0-0.6,0.4-1,1-1h6c0.1,0,0.3,0,0.4,0.1
		c0.2,0.1,0.4,0.3,0.5,0.5c0.1,0.1,0.1,0.3,0.1,0.4V39.7z"/>
</g>
<g id="XMLID_12_">
	<g id="XMLID_15_">
		<defs>
			<path id="XMLID_17_" d="M45,89.1C20.7,89.1,0.9,69.3,0.9,45S20.7,0.9,45,0.9S89.1,20.7,89.1,45S69.3,89.1,45,89.1z M45,5.3
				C23.1,5.3,5.3,23.1,5.3,45S23.1,84.7,45,84.7S84.7,66.9,84.7,45S66.9,5.3,45,5.3z"/>
		</defs>
		<use xlink:href="#XMLID_17_"  style="overflow:visible;fill:#666666;"/>
		<clipPath id="XMLID_21_">
			<use xlink:href="#XMLID_17_"  style="overflow:visible;"/>
		</clipPath>
	</g>
	<g id="XMLID_13_">
		<path id="XMLID_14_" class="st2" d="M45,88c6.6,0,12.8-2.2,18.3-5V60.8h13.6L59.8,47.1V33.6h-2.1h-4.9v7.8L31,25.2L4.2,47.8
			C4.9,69.1,23.5,88,45,88z"/>
	</g>
</g>
</svg>
