<?xml version="1.0" encoding="utf-8"?>
<!-- Generator: Adobe Illustrator 19.0.0, SVG Export Plug-In . SVG Version: 6.00 Build 0)  -->
<svg version="1.1" id="Layer_1" xmlns="http://www.w3.org/2000/svg" xmlns:xlink="http://www.w3.org/1999/xlink" x="0px" y="0px"
	 viewBox="0 0 66 71.1" style="enable-background:new 0 0 66 71.1;" xml:space="preserve">
<style type="text/css">
	.st0{fill:#666666;stroke:#666766;stroke-width:0.5;stroke-miterlimit:10;}
	.st1{fill:#666666;}
</style>
<g>
	<g>
		<path class="st0" d="M22.8,45.7c0.8-0.1,1.8-0.2,2.8-0.2c1.9,0,3.3,0.4,4.1,1.3c0.9,0.8,1.4,2,1.4,3.7c0,1.7-0.5,3-1.5,4
			c-1,1-2.5,1.5-4.5,1.5c-0.9,0-1.7,0-2.4-0.1V45.7z M24.1,54.8c0.3,0.1,0.8,0.1,1.3,0.1c2.8,0,4.4-1.6,4.4-4.3
			c0-2.4-1.4-3.9-4.1-3.9c-0.7,0-1.2,0.1-1.5,0.1V54.8z"/>
		<path class="st0" d="M41.6,50.6c0,3.5-2.1,5.4-4.8,5.4c-2.7,0-4.6-2.1-4.6-5.2c0-3.3,2-5.4,4.8-5.4C39.8,45.4,41.6,47.5,41.6,50.6
			z M33.7,50.7c0,2.2,1.2,4.1,3.3,4.1c2.1,0,3.3-1.9,3.3-4.3c0-2-1.1-4.2-3.3-4.2C34.8,46.5,33.7,48.5,33.7,50.7z"/>
		<path class="st0" d="M50.5,55.5C50,55.7,49.1,56,47.8,56c-2.9,0-5.1-1.8-5.1-5.2c0-3.2,2.2-5.4,5.3-5.4c1.3,0,2.1,0.3,2.4,0.5
			l-0.3,1.1c-0.5-0.2-1.2-0.4-2.1-0.4c-2.4,0-4,1.5-4,4.2c0,2.5,1.4,4.1,3.9,4.1c0.8,0,1.6-0.2,2.2-0.4L50.5,55.5z"/>
	</g>
	<g id="file_x5F_doc_6_">
		<g>
			<path id="XMLID_35_" class="st1" d="M52,69.7H9c-2.8,0-5.1-2.3-5.1-5.1V6.4c0-2.8,2.3-5.1,5.1-5.1c0.7,0,1.3,0.6,1.3,1.3
				S9.7,3.9,9,3.9C7.6,3.9,6.4,5,6.4,6.4v58.3c0,1.4,1.1,2.5,2.5,2.5H52c1.4,0,2.5-1.1,2.5-2.5v-3.8c0-0.7,0.6-1.3,1.3-1.3
				s1.3,0.6,1.3,1.3v3.8C57.1,67.5,54.8,69.7,52,69.7z"/>
		</g>
		<g>
			<path id="XMLID_34_" class="st1" d="M55.8,41.9c-0.7,0-1.3-0.6-1.3-1.3V17.1L41.4,3.9H9c-0.7,0-1.3-0.6-1.3-1.3S8.3,1.3,9,1.3
				h32.9c0.3,0,0.7,0.1,0.9,0.4l13.9,13.9c0.2,0.2,0.4,0.6,0.4,0.9v24.1C57.1,41.3,56.5,41.9,55.8,41.9z"/>
		</g>
		<g>
			<path id="XMLID_33_" class="st1" d="M55.8,19.1H44.4c-2.8,0-5.1-2.3-5.1-5.1V2.6c0-0.7,0.6-1.3,1.3-1.3s1.3,0.6,1.3,1.3V14
				c0,1.4,1.1,2.5,2.5,2.5h11.4c0.7,0,1.3,0.6,1.3,1.3C57.1,18.5,56.5,19.1,55.8,19.1z"/>
		</g>
		<g>
			<path class="st1" d="M57.1,62.1H16.6c-2.8,0-5.1-2.3-5.1-5.1V44.4c0-2.8,2.3-5.1,5.1-5.1h40.5c2.8,0,5.1,2.3,5.1,5.1v12.7
				C62.1,59.9,59.9,62.1,57.1,62.1z M16.6,41.9c-1.4,0-2.5,1.1-2.5,2.5v12.7c0,1.4,1.1,2.5,2.5,2.5h40.5c1.4,0,2.5-1.1,2.5-2.5V44.4
				c0-1.4-1.1-2.5-2.5-2.5H16.6z"/>
		</g>
		<g>
			<path id="XMLID_30_" class="st1" d="M30.5,11.5H15.3c-0.7,0-1.3-0.6-1.3-1.3c0-0.7,0.6-1.3,1.3-1.3h15.2c0.7,0,1.3,0.6,1.3,1.3
				C31.8,10.9,31.2,11.5,30.5,11.5z"/>
		</g>
		<g>
			<path id="XMLID_3_" class="st1" d="M30.5,16.5H15.3c-0.7,0-1.3-0.6-1.3-1.3c0-0.7,0.6-1.3,1.3-1.3h15.2c0.7,0,1.3,0.6,1.3,1.3
				C31.8,16,31.2,16.5,30.5,16.5z"/>
		</g>
		<g>
			<path id="XMLID_2_" class="st1" d="M30.5,21.6H15.3c-0.7,0-1.3-0.6-1.3-1.3s0.6-1.3,1.3-1.3h15.2c0.7,0,1.3,0.6,1.3,1.3
				S31.2,21.6,30.5,21.6z"/>
		</g>
		<g>
			<path id="XMLID_1_" class="st1" d="M25.4,26.7H15.3c-0.7,0-1.3-0.6-1.3-1.3s0.6-1.3,1.3-1.3h10.1c0.7,0,1.3,0.6,1.3,1.3
				S26.1,26.7,25.4,26.7z"/>
		</g>
	</g>
</g>
</svg>
