<?xml version="1.0" encoding="utf-8"?>
<!-- Generator: Adobe Illustrator 19.0.0, SVG Export Plug-In . SVG Version: 6.00 Build 0)  -->
<svg version="1.1" id="Layer_1" xmlns="http://www.w3.org/2000/svg" xmlns:xlink="http://www.w3.org/1999/xlink" x="0px" y="0px"
	 viewBox="0 0 66 71.1" style="enable-background:new 0 0 66 71.1;" xml:space="preserve">
<style type="text/css">
	.st0{fill:#666666;}
</style>
<g id="trash_4_">
	<path class="st0" d="M44.9,10.4V7.7c0-2.9-2.4-5.3-5.3-5.3H26.4c-2.9,0-5.3,2.4-5.3,5.3v2.7H7.8V13h2.7l3.9,50.5
		c0.4,3.1,2.5,5.1,5.3,5.1h26.5c2.7,0,5-2.2,5.3-5.2L55.5,13h2.7v-2.7H44.9z M23.7,7.7c0-1.5,1.2-2.7,2.7-2.7h13.3
		c1.5,0,2.7,1.2,2.7,2.7v2.7H23.7V7.7z M23.7,60.8l-1.3-42.4l2.6-0.1l1.3,42.4L23.7,60.8z M34.3,60.7h-2.7V18.3h2.7V60.7z
		 M42.3,60.8l-2.6-0.1L41,18.3l2.6,0.1L42.3,60.8z"/>
</g>
</svg>
