<?xml version="1.0" encoding="utf-8"?>
<!-- Generator: Adobe Illustrator 19.0.0, SVG Export Plug-In . SVG Version: 6.00 Build 0)  -->
<svg version="1.1" id="Layer_1" xmlns="http://www.w3.org/2000/svg" xmlns:xlink="http://www.w3.org/1999/xlink" x="0px" y="0px"
	 viewBox="0 0 66 71.1" style="enable-background:new 0 0 66 71.1;" xml:space="preserve">
<style type="text/css">
	.st0{fill:#666666;}
</style>
<g id="power">
	<g>
		<path id="XMLID_2_" class="st0" d="M33,29.6c-1.3,0-2.4-1.1-2.4-2.4V3.5c0-1.3,1.1-2.4,2.4-2.4c1.3,0,2.4,1.1,2.4,2.4v23.7
			C35.4,28.5,34.3,29.6,33,29.6z"/>
	</g>
	<g>
		<path id="XMLID_1_" class="st0" d="M33,69.9c-15.7,0-28.4-12.8-28.4-28.4c0-12.7,8.5-23.9,20.7-27.4c1.3-0.4,2.6,0.4,2.9,1.6
			c0.4,1.3-0.4,2.6-1.6,2.9C16.4,21.5,9.3,30.9,9.3,41.5C9.3,54.5,20,65.2,33,65.2s23.7-10.6,23.7-23.7c0-10.6-7.1-19.9-17.2-22.8
			c-1.3-0.4-2-1.7-1.6-2.9c0.4-1.3,1.7-2,2.9-1.6C53,17.5,61.5,28.8,61.5,41.5C61.5,57.1,48.7,69.9,33,69.9z"/>
	</g>
</g>
</svg>
