<?xml version="1.0" encoding="utf-8"?>
<!-- Generator: Adobe Illustrator 19.0.0, SVG Export Plug-In . SVG Version: 6.00 Build 0)  -->
<svg version="1.1" id="Layer_1" xmlns="http://www.w3.org/2000/svg" xmlns:xlink="http://www.w3.org/1999/xlink" x="0px" y="0px"
	 viewBox="-23 1.5 90 90" style="enable-background:new -23 1.5 90 90;" xml:space="preserve">
<style type="text/css">
	.st0{fill:none;stroke:#666666;stroke-width:2;stroke-linecap:round;stroke-linejoin:round;stroke-miterlimit:10;}
</style>
<g id="documents_6_">
	<path id="XMLID_31_" class="st0" d="M-11,20h33l14.8,14.8v49.5c0,2.7-2.2,5-5,5H-11c-2.7,0-5-2.2-5-5V25C-15.9,22.2-13.7,20-11,20"
		/>
	<path id="XMLID_30_" class="st0" d="M20.3,20v11.5c0,2.7,2.2,5,5,5h11.5"/>
	<path id="XMLID_3_" class="st0" d="M7.2,13.4V8.5c0-2.7,2.2-5,5-5"/>
	<path id="XMLID_2_" class="st0" d="M12.1,3.5h33L60,18.4v49.5c0,2.7-2.2,5-5,5H43.5"/>
	<path id="XMLID_1_" class="st0" d="M43.5,3.5V15c0,2.7,2.2,5,5,5H60"/>
</g>
</svg>
