<?xml version="1.0" encoding="utf-8"?>
<!-- Generator: Adobe Illustrator 19.1.0, SVG Export Plug-In . SVG Version: 6.00 Build 0)  -->
<svg version="1.1" id="Layer_1" xmlns="http://www.w3.org/2000/svg" xmlns:xlink="http://www.w3.org/1999/xlink" x="0px" y="0px"
	 viewBox="0 0 24 24" style="enable-background:new 0 0 24 24;" xml:space="preserve">
<style type="text/css">
	.st0{fill:#010101;}
</style>
<g>
	<path class="st0" d="M3.5,1.7v21H0.8c-0.3,0-0.5,0.2-0.5,0.5s0.2,0.5,0.5,0.5h3.1c0.1,0,0.2,0,0.2,0l11.7-2.2
		c0.2-0.1,0.4-0.3,0.4-0.5V3.4c0-0.3-0.2-0.5-0.4-0.5l-9-1.6h12.7v21.5c0,0.3,0.2,0.5,0.5,0.5h3.3c0.3,0,0.5-0.2,0.5-0.5
		s-0.2-0.5-0.5-0.5h-2.8V0.7c0-0.3-0.2-0.5-0.5-0.5H4c-0.3,0-0.5,0.2-0.5,0.5V1V1.7z M15.2,20.5L4.5,22.6V1.9l10.7,1.9V20.5z"/>
	<path class="st0" d="M13,13.6c0.2,0,0.5-0.2,0.5-0.5v-2.9c0-0.3-0.2-0.5-0.5-0.5s-0.5,0.2-0.5,0.5v2.9C12.5,13.4,12.7,13.6,13,13.6
		z"/>
</g>
</svg>
