<?xml version="1.0" encoding="utf-8"?>
<!-- Generator: Adobe Illustrator 19.0.0, SVG Export Plug-In . SVG Version: 6.00 Build 0)  -->
<svg version="1.1" id="Layer_1" xmlns="http://www.w3.org/2000/svg" xmlns:xlink="http://www.w3.org/1999/xlink" x="0px" y="0px"
	 viewBox="211 -211 512 512" style="enable-background:new 211 -211 512 512;" xml:space="preserve">
<g>
	<path d="M365.1-57.2H570c-1.8-21.3-10.4-37.8-29.8-43.1c-0.5-0.1-1.2-0.5-1.7-0.6c-12.8-3.7-22.4-8.2-22.4-22.2v-22
		c0-27.2-21.9-49.3-49.1-49.3c-27.2,0-49.1,22.1-49.1,49.3v22c0,14-9.2,18.3-22,22c-0.5,0.1-0.9,0.7-1.4,0.8
		C375.2-95,367.2-78.5,365.1-57.2z M467.5-159.7c8.1,0,14.7,6.6,14.7,14.8c0,8.2-6.6,14.8-14.7,14.8c-8.1,0-14.7-6.6-14.7-14.8
		C452.8-153.1,459.4-159.7,467.5-159.7z"/>
	<path d="M626.1-160.6H547v14.9c0,11.3,9.8,20.3,20.8,20.3h39.7c7.1,0,12.9,5.8,13.3,13l0.1,349c-0.3,6.9-5.7,12.3-12.3,12.8
		l-282.1,0c-6.6-0.5-11.9-6.1-12.2-12.9l-0.1-348.9c0.3-7.2,6.2-13,13.3-13h39.7c11,0,19.7-9,19.7-20.3v-14.9h-78
		c-16.1,0-29.7,13.4-29.7,30v384.5c0,16.5,13.6,30.5,29.7,30.5h158.6h158.6c16.2,0,28.7-13.9,28.7-30.5v-384.5
		C654.8-147.2,642.2-160.6,626.1-160.6z"/>
	<rect x="347.5" y="-23" width="119.5" height="34.1"/>
	<rect x="347.5" y="181.8" width="170.7" height="34.1"/>
	<rect x="347.5" y="113.5" width="137.6" height="34.1"/>
	<rect x="347.5" y="45.3" width="221.9" height="34.1"/>
</g>
</svg>
