<?xml version="1.0" encoding="utf-8"?>
<!-- Generator: Adobe Illustrator 19.0.0, SVG Export Plug-In . SVG Version: 6.00 Build 0)  -->
<svg version="1.1" id="Layer_1" xmlns="http://www.w3.org/2000/svg" xmlns:xlink="http://www.w3.org/1999/xlink" x="0px" y="0px"
	 viewBox="0 0 90 71.1" style="enable-background:new 0 0 90 71.1;" xml:space="preserve">
<style type="text/css">
	.st0{fill:none;stroke:#666666;stroke-width:2;stroke-linecap:round;stroke-linejoin:round;stroke-miterlimit:10;}
</style>
<g id="camera">
	<circle id="XMLID_3_" class="st0" cx="45" cy="38.8" r="21"/>
	<circle id="XMLID_2_" class="st0" cx="45" cy="38.8" r="14.5"/>
	<path id="XMLID_1_" class="st0" d="M83.8,69.5c2.7,0,4.8-2.2,4.8-4.8V19.4c0-2.7-2.2-4.8-4.8-4.8H70.9c-1.9,0-3.5-1-4.3-2.6l0,0
		l-4.3-7.7h0c-0.8-1.6-2.4-2.6-4.3-2.6H32.1c-1.9,0-3.5,1.1-4.3,2.6h0L23.4,12l0,0c-0.8,1.5-2.4,2.6-4.3,2.6H6.2
		c-2.7,0-4.8,2.2-4.8,4.8v45.2c0,2.7,2.2,4.8,4.8,4.8H83.8z"/>
</g>
</svg>
