<?xml version="1.0" encoding="utf-8"?>
<!-- Generator: Adobe Illustrator 19.0.0, SVG Export Plug-In . SVG Version: 6.00 Build 0)  -->
<svg version="1.1" id="Layer_1" xmlns="http://www.w3.org/2000/svg" xmlns:xlink="http://www.w3.org/1999/xlink" x="0px" y="0px"
	 viewBox="0 0 66 71.1" style="enable-background:new 0 0 66 71.1;" xml:space="preserve">
<style type="text/css">
	.st0{fill:#666666;}
</style>
<g id="cog_3_">
	<path class="st0" d="M61.4,29.6h-4.3c-0.6-2.5-1.6-4.9-2.9-7l2.6-2.6c1.4-1.4,1.4-3.6,0-4.9l-3.3-3.3c-1.3-1.3-3.6-1.3-4.9,0
		L46,14.4c-2.2-1.3-4.6-2.3-7-2.9V7.2c0-2-1.6-3.5-3.5-3.5h-4.7c-2,0-3.5,1.6-3.5,3.5v4.2c-2.5,0.6-4.8,1.6-7,2.9l-2.6-2.6
		c-1.3-1.3-3.6-1.3-4.9,0L9.2,15c-0.7,0.7-1,1.5-1,2.5s0.4,1.8,1,2.5l2.6,2.6c-1.3,2.2-2.3,4.5-2.9,7H4.7c-2,0-3.5,1.6-3.5,3.5v4.7
		c0,2,1.6,3.5,3.5,3.5h4.3c0.6,2.5,1.6,4.9,2.9,7l-2.6,2.6c-1.4,1.4-1.4,3.6,0,4.9l3.3,3.3c1.3,1.3,3.6,1.3,4.9,0l2.6-2.6
		c2.2,1.3,4.5,2.3,7,2.9v4.3c0,2,1.6,3.5,3.5,3.5h4.7c2,0,3.5-1.6,3.5-3.5v-4.3c2.5-0.6,4.9-1.6,7-2.9l2.6,2.6
		c1.3,1.3,3.6,1.3,4.9,0l3.3-3.3c0.7-0.7,1-1.5,1-2.5c0-0.9-0.4-1.8-1-2.5l-2.6-2.6c1.3-2.2,2.3-4.5,2.9-7h4.3c2,0,3.5-1.6,3.5-3.5
		v-4.7C64.9,31.2,63.3,29.6,61.4,29.6z M33,46.2c-5.9,0-10.6-4.8-10.6-10.6S27.1,24.9,33,24.9c5.9,0,10.6,4.8,10.6,10.6
		S38.9,46.2,33,46.2z"/>
</g>
</svg>
