<?xml version="1.0" encoding="utf-8"?>
<!-- Generator: Adobe Illustrator 19.0.0, SVG Export Plug-In . SVG Version: 6.00 Build 0)  -->
<svg version="1.1" id="Layer_1" xmlns="http://www.w3.org/2000/svg" xmlns:xlink="http://www.w3.org/1999/xlink" x="0px" y="0px"
	 viewBox="-23 1.5 90 90" style="enable-background:new -23 1.5 90 90;" xml:space="preserve">
<style type="text/css">
	.st0{fill:none;stroke:#666666;stroke-width:2;stroke-linecap:round;stroke-linejoin:round;stroke-miterlimit:10;}
</style>
<g id="light_4_">
	<line id="XMLID_30_" class="st0" x1="13.9" y1="83.8" x2="30.1" y2="80.6"/>
	<line id="XMLID_3_" class="st0" x1="13.9" y1="77.3" x2="30.1" y2="74"/>
	<line id="XMLID_2_" class="st0" x1="15.6" y1="90" x2="28.5" y2="87.3"/>
	<path id="XMLID_1_" class="st0" d="M22,70.8c0,0-5,0-8.1,0s-3.5-3.5-3.5-3.5C9,56.2,1,48.2,1,48.2c-4-4.8-6.5-11.1-6.5-17.7
		C-5.4,15.2,6.9,3,22,3s27.5,12.3,27.5,27.5c0,6.8-2.3,13-6.5,17.7c0,0-8,8-9.5,19.2c0,0-0.3,3.5-3.5,3.5C26.8,70.8,22,70.8,22,70.8
		"/>
</g>
</svg>
