<?xml version="1.0" encoding="utf-8"?>
<!-- Generator: Adobe Illustrator 19.0.0, SVG Export Plug-In . SVG Version: 6.00 Build 0)  -->
<svg version="1.1" id="Layer_1" xmlns="http://www.w3.org/2000/svg" xmlns:xlink="http://www.w3.org/1999/xlink" x="0px" y="0px"
	 viewBox="211 -211 512 512" style="enable-background:new 211 -211 512 512;" xml:space="preserve">
<g>
	<path d="M387.4-81.7l-41.8,41.8l314.7,314.7l41.7-41.8L387.4-81.7z M412.7-0.6l14-14L674.3,233l-14,14L412.7-0.6z"/>
	<rect x="377.5" y="-187" width="19.7" height="49.2"/>
	<rect x="377.5" y="63.7" width="19.7" height="49.2"/>
	<rect x="495.5" y="-49.4" width="49.2" height="19.7"/>
	<rect x="230.1" y="-49.4" width="49.2" height="19.7"/>
	<rect x="288.9" y="-150" transform="matrix(0.7071 -0.7071 0.7071 0.7071 176.2137 174.4819)" width="19.7" height="49.2"/>
	<rect x="288.9" y="27.2" transform="matrix(0.7071 0.7071 -0.7071 0.7071 124.1231 -196.0569)" width="19.7" height="49.2"/>
	<rect x="466.2" y="-150" transform="matrix(0.7071 0.7071 -0.7071 0.7071 50.6989 -373.3192)" width="19.7" height="49.2"/>
</g>
</svg>
