<?xml version="1.0" encoding="utf-8"?>
<!-- Generator: Adobe Illustrator 19.0.0, SVG Export Plug-In . SVG Version: 6.00 Build 0)  -->
<svg version="1.1" id="Layer_1" xmlns="http://www.w3.org/2000/svg" xmlns:xlink="http://www.w3.org/1999/xlink" x="0px" y="0px"
	 viewBox="0 0 66 71.1" style="enable-background:new 0 0 66 71.1;" xml:space="preserve">
<style type="text/css">
	.st0{fill:#666666;}
	.st1{fill:#666666;stroke:#666766;stroke-width:0.5;stroke-miterlimit:10;}
</style>
<g>
	<g id="file_x5F_jpg_6_">
		<g>
			<path id="XMLID_37_" class="st0" d="M52,69.6H9c-2.8,0-5.1-2.3-5.1-5.1V6.5C4,3.7,6.2,1.4,9,1.4c0.7,0,1.3,0.6,1.3,1.3S9.7,4,9,4
				C7.6,4,6.5,5.1,6.5,6.5v58.1c0,1.4,1.1,2.5,2.5,2.5H52c1.4,0,2.5-1.1,2.5-2.5v-3.8c0-0.7,0.6-1.3,1.3-1.3s1.3,0.6,1.3,1.3v3.8
				C57,67.4,54.7,69.6,52,69.6z"/>
		</g>
		<g>
			<path id="XMLID_36_" class="st0" d="M55.8,41.9c-0.7,0-1.3-0.6-1.3-1.3V17.1L41.3,4H9C8.3,4,7.8,3.4,7.8,2.7S8.3,1.4,9,1.4h32.8
				c0.3,0,0.7,0.1,0.9,0.4l13.9,13.9c0.2,0.2,0.4,0.6,0.4,0.9v24C57,41.3,56.4,41.9,55.8,41.9z"/>
		</g>
		<g>
			<path id="XMLID_35_" class="st0" d="M55.8,19.1H44.4c-2.8,0-5.1-2.3-5.1-5.1V2.7c0-0.7,0.6-1.3,1.3-1.3s1.3,0.6,1.3,1.3v11.4
				c0,1.4,1.1,2.5,2.5,2.5h11.4c0.7,0,1.3,0.6,1.3,1.3C57,18.6,56.4,19.1,55.8,19.1z"/>
		</g>
		<g>
			<path class="st0" d="M57,62.1H16.6c-2.8,0-5.1-2.3-5.1-5.1V44.4c0-2.8,2.3-5.1,5.1-5.1H57c2.8,0,5.1,2.3,5.1,5.1V57
				C62.1,59.8,59.8,62.1,57,62.1z M16.6,41.9c-1.4,0-2.5,1.1-2.5,2.5V57c0,1.4,1.1,2.5,2.5,2.5H57c1.4,0,2.5-1.1,2.5-2.5V44.4
				c0-1.4-1.1-2.5-2.5-2.5H16.6z"/>
		</g>
		<g>
			<path id="XMLID_32_" class="st0" d="M12.8,26.7c-0.3,0-0.6-0.1-0.9-0.4c-0.5-0.5-0.5-1.3,0-1.8l6.3-6.3c0.5-0.5,1.3-0.5,1.8,0
				l1.6,1.6l4.2-4.2c0.5-0.5,1.3-0.5,1.8,0l6.3,6.3c0.5,0.5,0.5,1.3,0,1.8s-1.3,0.5-1.8,0l-5.4-5.4l-4.2,4.2c-0.5,0.5-1.3,0.5-1.8,0
				l-1.6-1.6l-5.4,5.4C13.5,26.6,13.1,26.7,12.8,26.7z"/>
		</g>
		<g>
			<path class="st0" d="M33,26.7H12.8c-0.7,0-1.3-0.6-1.3-1.3V10.3c0-0.7,0.6-1.3,1.3-1.3H33c0.7,0,1.3,0.6,1.3,1.3v15.2
				C34.3,26.1,33.7,26.7,33,26.7z M14.1,24.2h17.7V11.5H14.1V24.2z"/>
		</g>
	</g>
	<g>
		<path class="st1" d="M26.6,45.5v10.2h-1.3V45.5H26.6z"/>
		<path class="st1" d="M37.6,51.3c-0.1-1.4-0.2-3.1-0.2-4.4h0c-0.3,1.2-0.8,2.5-1.3,3.9l-1.8,5h-1l-1.7-4.9c-0.5-1.4-0.9-2.8-1.2-4
			h0c0,1.3-0.1,3-0.2,4.5l-0.3,4.4h-1.3l0.7-10.2h1.7l1.7,4.9c0.4,1.3,0.8,2.4,1,3.4h0c0.3-1,0.6-2.2,1.1-3.4l1.8-4.9h1.7l0.6,10.2
			h-1.3L37.6,51.3z"/>
		<path class="st1" d="M48.9,55.3c-0.6,0.2-1.8,0.6-3.1,0.6c-1.5,0-2.8-0.4-3.8-1.3c-0.9-0.8-1.4-2.2-1.4-3.8c0-3,2.1-5.3,5.5-5.3
			c1.2,0,2.1,0.3,2.5,0.5L48.3,47c-0.5-0.2-1.2-0.4-2.3-0.4c-2.5,0-4.1,1.5-4.1,4.1c0,2.6,1.6,4.1,3.9,4.1c0.9,0,1.5-0.1,1.8-0.3v-3
			h-2.1v-1.1h3.4V55.3z"/>
	</g>
</g>
</svg>
