<?xml version="1.0" encoding="utf-8"?>
<!-- Generator: Adobe Illustrator 19.0.0, SVG Export Plug-In . SVG Version: 6.00 Build 0)  -->
<svg version="1.1" id="Layer_1" xmlns="http://www.w3.org/2000/svg" xmlns:xlink="http://www.w3.org/1999/xlink" x="0px" y="0px"
	 viewBox="0 0 66 71.1" style="enable-background:new 0 0 66 71.1;" xml:space="preserve">
<style type="text/css">
	.st0{fill:#666666;}
	.st1{fill:#666666;stroke:#666766;stroke-width:0.5;stroke-miterlimit:10;}
</style>
<g>
	<g id="file_x5F_pdf_6_">
		<g>
			<path id="XMLID_40_" class="st0" d="M52,69.6H9c-2.8,0-5.1-2.3-5.1-5.1V6.5C4,3.7,6.2,1.4,9,1.4c0.7,0,1.3,0.6,1.3,1.3S9.7,4,9,4
				C7.6,4,6.5,5.1,6.5,6.5v58.1c0,1.4,1.1,2.5,2.5,2.5H52c1.4,0,2.5-1.1,2.5-2.5v-3.8c0-0.7,0.6-1.3,1.3-1.3c0.7,0,1.3,0.6,1.3,1.3
				v3.8C57,67.4,54.7,69.6,52,69.6z"/>
		</g>
		<g>
			<path id="XMLID_39_" class="st0" d="M55.8,41.9c-0.7,0-1.3-0.6-1.3-1.3V17.1L41.3,4H9C8.3,4,7.8,3.4,7.8,2.7S8.3,1.4,9,1.4h32.8
				c0.3,0,0.7,0.1,0.9,0.4l13.9,13.9c0.2,0.2,0.4,0.6,0.4,0.9v24C57,41.3,56.4,41.9,55.8,41.9z"/>
		</g>
		<g>
			<path id="XMLID_38_" class="st0" d="M55.8,19.1H44.4c-2.8,0-5.1-2.3-5.1-5.1V2.7c0-0.7,0.6-1.3,1.3-1.3c0.7,0,1.3,0.6,1.3,1.3
				v11.4c0,1.4,1.1,2.5,2.5,2.5h11.4c0.7,0,1.3,0.6,1.3,1.3C57,18.6,56.4,19.1,55.8,19.1z"/>
		</g>
		<g>
			<path class="st0" d="M57,62.1H16.6c-2.8,0-5.1-2.3-5.1-5.1V44.4c0-2.8,2.3-5.1,5.1-5.1H57c2.8,0,5.1,2.3,5.1,5.1V57
				C62.1,59.8,59.8,62.1,57,62.1z M16.6,41.9c-1.4,0-2.5,1.1-2.5,2.5V57c0,1.4,1.1,2.5,2.5,2.5H57c1.4,0,2.5-1.1,2.5-2.5V44.4
				c0-1.4-1.1-2.5-2.5-2.5H16.6z"/>
		</g>
		<g>
			<path class="st0" d="M22.9,31.7c-6.3,0-11.4-5.1-11.4-11.4S16.6,9,22.9,9s11.4,5.1,11.4,11.4S29.2,31.7,22.9,31.7z M22.9,11.5
				c-4.9,0-8.8,4-8.8,8.8s4,8.8,8.8,8.8s8.8-4,8.8-8.8S27.8,11.5,22.9,11.5z"/>
		</g>
		<g>
			<path id="XMLID_33_" class="st0" d="M22.9,21.6c-0.7,0-1.3-0.6-1.3-1.3V10.3c0-0.7,0.6-1.3,1.3-1.3c0.7,0,1.3,0.6,1.3,1.3v10.1
				C24.2,21.1,23.6,21.6,22.9,21.6z"/>
		</g>
		<g>
			<path id="XMLID_32_" class="st0" d="M33,21.6H22.9c-0.7,0-1.3-0.6-1.3-1.3c0-0.7,0.6-1.3,1.3-1.3H33c0.7,0,1.3,0.6,1.3,1.3
				C34.3,21.1,33.7,21.6,33,21.6z"/>
		</g>
	</g>
	<g>
		<path class="st1" d="M24.1,45.7c0.6-0.1,1.5-0.2,2.5-0.2c1.3,0,2.3,0.3,2.9,0.8c0.6,0.5,0.9,1.2,0.9,2.1c0,0.9-0.3,1.7-0.8,2.2
			c-0.7,0.7-1.8,1.1-3.1,1.1c-0.4,0-0.8,0-1.1-0.1v4.1h-1.3V45.7z M25.4,50.6c0.3,0.1,0.7,0.1,1.1,0.1c1.6,0,2.6-0.8,2.6-2.2
			c0-1.3-1-2-2.4-2c-0.6,0-1,0-1.2,0.1V50.6z"/>
		<path class="st1" d="M32.1,45.7c0.8-0.1,1.8-0.2,2.8-0.2c1.9,0,3.2,0.4,4.1,1.3c0.9,0.8,1.4,2,1.4,3.7c0,1.7-0.5,3-1.5,4
			c-1,1-2.5,1.5-4.5,1.5c-0.9,0-1.7,0-2.4-0.1V45.7z M33.4,54.7c0.3,0.1,0.8,0.1,1.3,0.1c2.8,0,4.3-1.6,4.3-4.3
			c0-2.4-1.3-3.9-4.1-3.9c-0.7,0-1.2,0.1-1.5,0.1V54.7z"/>
		<path class="st1" d="M42.2,45.5h5.5v1.1h-4.2V50h3.9v1.1h-3.9v4.6h-1.3V45.5z"/>
	</g>
</g>
</svg>
